<?xml version="1.0" encoding="utf-8"?>
<!-- Generator: Adobe Illustrator 22.1.0, SVG Export Plug-In . SVG Version: 6.00 Build 0)  -->
<svg version="1.1" xmlns="http://www.w3.org/2000/svg" xmlns:xlink="http://www.w3.org/1999/xlink" x="0px" y="0px"
	 viewBox="0 0 100 100" style="enable-background:new 0 0 100 100;" xml:space="preserve">
<style type="text/css">
	.st0{display:none;}
	.st1{fill:#0000FF;}
	.st2{fill:#FFFFFF;}
</style>
<g id="Layer_1" class="st0">
	
		<image style="display:inline;overflow:visible;" width="612" height="612" xlink:href="F24B2F9F.jpg"  transform="matrix(0.2353 0 0 0.2353 -22 -23)">
	</image>
</g>
<g id="Layer_2">
	<path class="st1" d="M50.5,2c0,0-32,46.1-31.5,64.1c0.6,19.2,14.3,32.3,30.3,32.6c16.8,0.4,32.6-13.3,32.6-35C82,48,50.5,2,50.5,2z
		"/>
	<path class="st2" d="M75,59.1c0,0,5.2,13.4-5.8,25.7c-8.6,9.5-24.5,5.8-24.5,5.8s10.4-3.4,19.8-14C72.5,67.6,75,59.1,75,59.1z"/>
</g>
</svg>
